<mxfile host="app.diagrams.net" modified="2021-08-05T09:31:54.150Z" agent="5.0 (Macintosh; Intel Mac OS X 10_15_7) AppleWebKit/537.36 (KHTML, like Gecko) Chrome/92.0.4515.107 Safari/537.36" etag="EDEU3gxvqMZGKznJIRoI" version="14.9.4" type="github">
  <diagram id="C5RBs43oDa-KdzZeNtuy" name="Page-1">
    <mxGraphModel dx="757" dy="514" grid="1" gridSize="10" guides="1" tooltips="1" connect="1" arrows="1" fold="1" page="1" pageScale="1" pageWidth="827" pageHeight="1169" math="0" shadow="0">
      <root>
        <mxCell id="WIyWlLk6GJQsqaUBKTNV-0" />
        <mxCell id="WIyWlLk6GJQsqaUBKTNV-1" parent="WIyWlLk6GJQsqaUBKTNV-0" />
        <mxCell id="WIyWlLk6GJQsqaUBKTNV-2" value="" style="rounded=0;html=1;jettySize=auto;orthogonalLoop=1;fontSize=11;endArrow=block;endFill=0;endSize=8;strokeWidth=1;shadow=0;labelBackgroundColor=none;edgeStyle=orthogonalEdgeStyle;" parent="WIyWlLk6GJQsqaUBKTNV-1" source="WIyWlLk6GJQsqaUBKTNV-3" target="WIyWlLk6GJQsqaUBKTNV-6" edge="1">
          <mxGeometry relative="1" as="geometry" />
        </mxCell>
        <mxCell id="fOGR6jNRcmCTg8lynunv-2" value="&lt;font style=&quot;font-size: 9px;&quot;&gt;读取数据库任务，并解析cron表达式&lt;/font&gt;" style="edgeLabel;html=1;align=center;verticalAlign=middle;resizable=0;points=[];fontSize=9;" vertex="1" connectable="0" parent="WIyWlLk6GJQsqaUBKTNV-2">
          <mxGeometry x="-0.2636" y="2" relative="1" as="geometry">
            <mxPoint as="offset" />
          </mxGeometry>
        </mxCell>
        <mxCell id="WIyWlLk6GJQsqaUBKTNV-3" value="分钟级定时任务" style="rounded=1;whiteSpace=wrap;html=1;fontSize=12;glass=0;strokeWidth=1;shadow=0;" parent="WIyWlLk6GJQsqaUBKTNV-1" vertex="1">
          <mxGeometry x="264" y="80" width="120" height="40" as="geometry" />
        </mxCell>
        <mxCell id="WIyWlLk6GJQsqaUBKTNV-4" value="Yes" style="rounded=0;html=1;jettySize=auto;orthogonalLoop=1;fontSize=11;endArrow=block;endFill=0;endSize=8;strokeWidth=1;shadow=0;labelBackgroundColor=none;edgeStyle=orthogonalEdgeStyle;" parent="WIyWlLk6GJQsqaUBKTNV-1" source="WIyWlLk6GJQsqaUBKTNV-6" target="WIyWlLk6GJQsqaUBKTNV-10" edge="1">
          <mxGeometry y="20" relative="1" as="geometry">
            <mxPoint as="offset" />
          </mxGeometry>
        </mxCell>
        <mxCell id="WIyWlLk6GJQsqaUBKTNV-5" value="No" style="edgeStyle=orthogonalEdgeStyle;rounded=0;html=1;jettySize=auto;orthogonalLoop=1;fontSize=11;endArrow=block;endFill=0;endSize=8;strokeWidth=1;shadow=0;labelBackgroundColor=none;" parent="WIyWlLk6GJQsqaUBKTNV-1" source="WIyWlLk6GJQsqaUBKTNV-6" target="WIyWlLk6GJQsqaUBKTNV-7" edge="1">
          <mxGeometry y="10" relative="1" as="geometry">
            <mxPoint as="offset" />
          </mxGeometry>
        </mxCell>
        <mxCell id="WIyWlLk6GJQsqaUBKTNV-6" value="当前是否存在可执行任务" style="rhombus;whiteSpace=wrap;html=1;shadow=0;fontFamily=Helvetica;fontSize=12;align=center;strokeWidth=1;spacing=6;spacingTop=-4;" parent="WIyWlLk6GJQsqaUBKTNV-1" vertex="1">
          <mxGeometry x="274" y="170" width="100" height="80" as="geometry" />
        </mxCell>
        <mxCell id="WIyWlLk6GJQsqaUBKTNV-7" value="结束" style="rounded=1;whiteSpace=wrap;html=1;fontSize=12;glass=0;strokeWidth=1;shadow=0;opacity=90;" parent="WIyWlLk6GJQsqaUBKTNV-1" vertex="1">
          <mxGeometry x="424" y="190" width="70" height="40" as="geometry" />
        </mxCell>
        <mxCell id="fOGR6jNRcmCTg8lynunv-6" style="edgeStyle=orthogonalEdgeStyle;rounded=0;orthogonalLoop=1;jettySize=auto;html=1;entryX=1;entryY=0.5;entryDx=0;entryDy=0;fontSize=9;" edge="1" parent="WIyWlLk6GJQsqaUBKTNV-1" source="WIyWlLk6GJQsqaUBKTNV-10" target="fOGR6jNRcmCTg8lynunv-5">
          <mxGeometry relative="1" as="geometry" />
        </mxCell>
        <mxCell id="fOGR6jNRcmCTg8lynunv-7" value="对账" style="edgeLabel;html=1;align=center;verticalAlign=middle;resizable=0;points=[];fontSize=9;" vertex="1" connectable="0" parent="fOGR6jNRcmCTg8lynunv-6">
          <mxGeometry x="0.1012" y="-1" relative="1" as="geometry">
            <mxPoint as="offset" />
          </mxGeometry>
        </mxCell>
        <mxCell id="fOGR6jNRcmCTg8lynunv-8" style="edgeStyle=orthogonalEdgeStyle;rounded=0;orthogonalLoop=1;jettySize=auto;html=1;entryX=0;entryY=0.5;entryDx=0;entryDy=0;fontSize=9;" edge="1" parent="WIyWlLk6GJQsqaUBKTNV-1" source="WIyWlLk6GJQsqaUBKTNV-10" target="WIyWlLk6GJQsqaUBKTNV-12">
          <mxGeometry relative="1" as="geometry" />
        </mxCell>
        <mxCell id="fOGR6jNRcmCTg8lynunv-9" value="&lt;span style=&quot;font-size: 11px ; background-color: rgb(248 , 249 , 250)&quot;&gt;数据提取/状态补齐&lt;/span&gt;" style="edgeLabel;html=1;align=center;verticalAlign=middle;resizable=0;points=[];fontSize=9;" vertex="1" connectable="0" parent="fOGR6jNRcmCTg8lynunv-8">
          <mxGeometry x="-0.1961" y="1" relative="1" as="geometry">
            <mxPoint as="offset" />
          </mxGeometry>
        </mxCell>
        <mxCell id="WIyWlLk6GJQsqaUBKTNV-10" value="任务类型" style="rhombus;whiteSpace=wrap;html=1;shadow=0;fontFamily=Helvetica;fontSize=12;align=center;strokeWidth=1;spacing=6;spacingTop=-4;" parent="WIyWlLk6GJQsqaUBKTNV-1" vertex="1">
          <mxGeometry x="274" y="291.5" width="100" height="63" as="geometry" />
        </mxCell>
        <mxCell id="fOGR6jNRcmCTg8lynunv-18" style="edgeStyle=orthogonalEdgeStyle;rounded=0;orthogonalLoop=1;jettySize=auto;html=1;exitX=0.5;exitY=1;exitDx=0;exitDy=0;entryX=0.5;entryY=0;entryDx=0;entryDy=0;fontSize=9;" edge="1" parent="WIyWlLk6GJQsqaUBKTNV-1" source="WIyWlLk6GJQsqaUBKTNV-12" target="fOGR6jNRcmCTg8lynunv-16">
          <mxGeometry relative="1" as="geometry" />
        </mxCell>
        <mxCell id="WIyWlLk6GJQsqaUBKTNV-12" value="MySQL用户权限检查/&lt;br&gt;文件目录检查(防止回溯)" style="rounded=1;whiteSpace=wrap;html=1;fontSize=12;glass=0;strokeWidth=1;shadow=0;" parent="WIyWlLk6GJQsqaUBKTNV-1" vertex="1">
          <mxGeometry x="494" y="303" width="136" height="40" as="geometry" />
        </mxCell>
        <mxCell id="fOGR6jNRcmCTg8lynunv-13" style="edgeStyle=orthogonalEdgeStyle;rounded=0;orthogonalLoop=1;jettySize=auto;html=1;entryX=0.5;entryY=0;entryDx=0;entryDy=0;fontSize=9;" edge="1" parent="WIyWlLk6GJQsqaUBKTNV-1" source="fOGR6jNRcmCTg8lynunv-5" target="fOGR6jNRcmCTg8lynunv-11">
          <mxGeometry relative="1" as="geometry" />
        </mxCell>
        <mxCell id="fOGR6jNRcmCTg8lynunv-5" value="MySQL用户权限检查/&lt;br&gt;文件目录检查(防止回溯)" style="rounded=1;whiteSpace=wrap;html=1;fontSize=12;glass=0;strokeWidth=1;shadow=0;" vertex="1" parent="WIyWlLk6GJQsqaUBKTNV-1">
          <mxGeometry x="50" y="303" width="136" height="40" as="geometry" />
        </mxCell>
        <mxCell id="fOGR6jNRcmCTg8lynunv-15" style="edgeStyle=orthogonalEdgeStyle;rounded=0;orthogonalLoop=1;jettySize=auto;html=1;entryX=0.5;entryY=0;entryDx=0;entryDy=0;fontSize=9;" edge="1" parent="WIyWlLk6GJQsqaUBKTNV-1" source="fOGR6jNRcmCTg8lynunv-11" target="fOGR6jNRcmCTg8lynunv-14">
          <mxGeometry relative="1" as="geometry" />
        </mxCell>
        <mxCell id="fOGR6jNRcmCTg8lynunv-11" value="解析对账配置&lt;br&gt;构造数据源&lt;br&gt;" style="rounded=1;whiteSpace=wrap;html=1;fontSize=9;opacity=90;" vertex="1" parent="WIyWlLk6GJQsqaUBKTNV-1">
          <mxGeometry x="53" y="370" width="130" height="40" as="geometry" />
        </mxCell>
        <mxCell id="fOGR6jNRcmCTg8lynunv-23" style="edgeStyle=orthogonalEdgeStyle;rounded=0;orthogonalLoop=1;jettySize=auto;html=1;entryX=0;entryY=0.5;entryDx=0;entryDy=0;fontSize=9;" edge="1" parent="WIyWlLk6GJQsqaUBKTNV-1" source="fOGR6jNRcmCTg8lynunv-14" target="fOGR6jNRcmCTg8lynunv-20">
          <mxGeometry relative="1" as="geometry" />
        </mxCell>
        <mxCell id="fOGR6jNRcmCTg8lynunv-14" value="&lt;span style=&quot;color: rgb(0 , 0 , 0) ; font-family: &amp;#34;helvetica&amp;#34; ; font-size: 9px ; font-style: normal ; font-weight: 400 ; letter-spacing: normal ; text-align: center ; text-indent: 0px ; text-transform: none ; word-spacing: 0px ; background-color: rgb(248 , 249 , 250) ; display: inline ; float: none&quot;&gt;进行对账&lt;/span&gt;&lt;br style=&quot;color: rgb(0 , 0 , 0) ; font-family: &amp;#34;helvetica&amp;#34; ; font-size: 9px ; font-style: normal ; font-weight: 400 ; letter-spacing: normal ; text-align: center ; text-indent: 0px ; text-transform: none ; word-spacing: 0px ; background-color: rgb(248 , 249 , 250)&quot;&gt;&lt;span style=&quot;color: rgb(0 , 0 , 0) ; font-family: &amp;#34;helvetica&amp;#34; ; font-size: 9px ; font-style: normal ; font-weight: 400 ; letter-spacing: normal ; text-align: center ; text-indent: 0px ; text-transform: none ; word-spacing: 0px ; background-color: rgb(248 , 249 , 250) ; display: inline ; float: none&quot;&gt;根据配置统计其他数据&lt;/span&gt;" style="rounded=1;whiteSpace=wrap;html=1;fontSize=9;opacity=90;" vertex="1" parent="WIyWlLk6GJQsqaUBKTNV-1">
          <mxGeometry x="52.25" y="440" width="131.5" height="40" as="geometry" />
        </mxCell>
        <mxCell id="fOGR6jNRcmCTg8lynunv-22" style="edgeStyle=orthogonalEdgeStyle;rounded=0;orthogonalLoop=1;jettySize=auto;html=1;entryX=1;entryY=0.5;entryDx=0;entryDy=0;fontSize=9;" edge="1" parent="WIyWlLk6GJQsqaUBKTNV-1" source="fOGR6jNRcmCTg8lynunv-16" target="fOGR6jNRcmCTg8lynunv-20">
          <mxGeometry relative="1" as="geometry" />
        </mxCell>
        <mxCell id="fOGR6jNRcmCTg8lynunv-16" value="统计原始数据上报&lt;br&gt;或导出至文件" style="rounded=1;whiteSpace=wrap;html=1;fontSize=9;opacity=90;" vertex="1" parent="WIyWlLk6GJQsqaUBKTNV-1">
          <mxGeometry x="501" y="440" width="122" height="40" as="geometry" />
        </mxCell>
        <mxCell id="fOGR6jNRcmCTg8lynunv-19" style="edgeStyle=orthogonalEdgeStyle;rounded=0;orthogonalLoop=1;jettySize=auto;html=1;exitX=0.5;exitY=1;exitDx=0;exitDy=0;fontSize=9;" edge="1" parent="WIyWlLk6GJQsqaUBKTNV-1" source="WIyWlLk6GJQsqaUBKTNV-10" target="WIyWlLk6GJQsqaUBKTNV-10">
          <mxGeometry relative="1" as="geometry" />
        </mxCell>
        <mxCell id="fOGR6jNRcmCTg8lynunv-25" value="否" style="edgeStyle=orthogonalEdgeStyle;rounded=0;orthogonalLoop=1;jettySize=auto;html=1;fontSize=9;" edge="1" parent="WIyWlLk6GJQsqaUBKTNV-1" source="fOGR6jNRcmCTg8lynunv-20" target="fOGR6jNRcmCTg8lynunv-24">
          <mxGeometry relative="1" as="geometry" />
        </mxCell>
        <mxCell id="fOGR6jNRcmCTg8lynunv-30" style="edgeStyle=orthogonalEdgeStyle;rounded=0;orthogonalLoop=1;jettySize=auto;html=1;entryX=0.5;entryY=0;entryDx=0;entryDy=0;fontSize=9;" edge="1" parent="WIyWlLk6GJQsqaUBKTNV-1" source="fOGR6jNRcmCTg8lynunv-20" target="fOGR6jNRcmCTg8lynunv-29">
          <mxGeometry relative="1" as="geometry" />
        </mxCell>
        <mxCell id="fOGR6jNRcmCTg8lynunv-20" value="是否存在回调" style="rhombus;whiteSpace=wrap;html=1;fontSize=9;opacity=90;" vertex="1" parent="WIyWlLk6GJQsqaUBKTNV-1">
          <mxGeometry x="276" y="435" width="96" height="50" as="geometry" />
        </mxCell>
        <mxCell id="fOGR6jNRcmCTg8lynunv-24" value="上报处理结果" style="rounded=1;whiteSpace=wrap;html=1;fontSize=9;opacity=90;" vertex="1" parent="WIyWlLk6GJQsqaUBKTNV-1">
          <mxGeometry x="282" y="375" width="84" height="35" as="geometry" />
        </mxCell>
        <mxCell id="fOGR6jNRcmCTg8lynunv-28" value="上报处理结果" style="rounded=1;whiteSpace=wrap;html=1;fontSize=9;opacity=90;" vertex="1" parent="WIyWlLk6GJQsqaUBKTNV-1">
          <mxGeometry x="282" y="579" width="84" height="35" as="geometry" />
        </mxCell>
        <mxCell id="fOGR6jNRcmCTg8lynunv-31" style="edgeStyle=orthogonalEdgeStyle;rounded=0;orthogonalLoop=1;jettySize=auto;html=1;entryX=0.5;entryY=0;entryDx=0;entryDy=0;fontSize=9;" edge="1" parent="WIyWlLk6GJQsqaUBKTNV-1" source="fOGR6jNRcmCTg8lynunv-29" target="fOGR6jNRcmCTg8lynunv-28">
          <mxGeometry relative="1" as="geometry" />
        </mxCell>
        <mxCell id="fOGR6jNRcmCTg8lynunv-29" value="执行回调请求" style="rounded=1;whiteSpace=wrap;html=1;fontSize=9;opacity=90;" vertex="1" parent="WIyWlLk6GJQsqaUBKTNV-1">
          <mxGeometry x="282" y="510" width="84" height="35" as="geometry" />
        </mxCell>
      </root>
    </mxGraphModel>
  </diagram>
</mxfile>
